<?xml version="1.0" encoding="UTF-8" standalone="no"?>
<svg xmlns="http://www.w3.org/2000/svg" xmlns:xlink="http://www.w3.org/1999/xlink" width="375" zoomAndPan="magnify" viewBox="0 0 375 374.999991" height="375" preserveAspectRatio="xMidYMid meet" version="1.0">
  <defs>
    <g></g>
    <clipPath id="24d4a2dbb2">
      <path d="M 84 3 L 291 3 L 291 243.75 L 84 243.75 Z M 84 3 " clip-rule="nonzero"></path>
    </clipPath>
    <clipPath id="fef1b57f0b">
      <path d="M 84 3 L 291 3 L 291 243.75 L 84 243.75 Z M 84 3 " clip-rule="nonzero"></path>
    </clipPath>
    <clipPath id="e42ed407b5">
      <path d="M 144.476562 56.417969 L 230.726562 56.417969 L 230.726562 167.417969 L 144.476562 167.417969 Z M 144.476562 56.417969 " clip-rule="nonzero"></path>
    </clipPath>
  </defs>
  <g clip-path="url(#24d4a2dbb2)">
    <path fill="#b78746" d="M 288.300781 34 C 288.1875 33.992188 288.066406 33.980469 287.949219 33.96875 C 285.851562 33.550781 262.613281 28.902344 238.574219 22.484375 C 211.15625 13.613281 187.007812 2.992188 187.007812 2.992188 C 187.007812 2.992188 163.917969 13.316406 137.273438 22.105469 C 113.007812 28.722656 89.191406 33.546875 87.082031 33.96875 C 86.964844 33.980469 86.847656 33.992188 86.734375 34 C 86.734375 34 58.871094 179.648438 187.421875 243.605469 L 187.519531 243.402344 L 187.617188 243.605469 C 316.164062 179.648438 288.300781 34 288.300781 34 " fill-opacity="1" fill-rule="nonzero"></path>
  </g>
  <path fill="#b78746" d="M 276.984375 44.027344 C 276.882812 44.019531 276.777344 44.007812 276.671875 44 C 274.808594 43.628906 254.179688 39.5 232.84375 33.804688 C 208.503906 25.929688 187.066406 16.5 187.066406 16.5 C 187.066406 16.5 166.566406 25.664062 142.914062 33.46875 C 121.375 39.339844 100.230469 43.625 98.359375 44 C 98.257812 44.007812 98.152344 44.019531 98.050781 44.027344 C 98.050781 44.027344 73.316406 173.320312 187.433594 230.097656 L 187.519531 229.917969 L 187.605469 230.097656 C 301.722656 173.320312 276.984375 44.027344 276.984375 44.027344 " fill-opacity="1" fill-rule="nonzero"></path>
  <path fill="#b78746" d="M 271.121094 49.222656 C 271.027344 49.214844 270.929688 49.207031 270.832031 49.199219 C 269.089844 48.851562 249.8125 44.996094 229.871094 39.667969 C 207.128906 32.308594 187.09375 23.5 187.09375 23.5 C 187.09375 23.5 167.9375 32.0625 145.839844 39.355469 C 125.707031 44.84375 105.949219 48.847656 104.203125 49.199219 C 104.105469 49.207031 104.011719 49.214844 103.914062 49.222656 C 103.914062 49.222656 80.800781 170.042969 187.4375 223.097656 L 187.519531 222.929688 L 187.597656 223.097656 C 294.234375 170.042969 271.121094 49.222656 271.121094 49.222656 " fill-opacity="1" fill-rule="nonzero"></path>
  <path fill="#b78746" d="M 270.832031 49.199219 C 269.089844 48.851562 249.8125 44.996094 229.871094 39.667969 C 207.128906 32.308594 187.09375 23.5 187.09375 23.5 C 187.09375 23.5 167.9375 32.0625 145.839844 39.355469 C 125.707031 44.84375 105.949219 48.847656 104.203125 49.199219 C 104.105469 49.207031 104.007812 49.214844 103.914062 49.222656 L 187.371094 112.710938 L 270.832031 49.199219 " fill-opacity="1" fill-rule="nonzero"></path>
  <path fill="#b78746" d="M 103.914062 49.222656 C 103.914062 49.222656 80.800781 170.042969 187.4375 223.097656 L 187.371094 112.710938 L 103.914062 49.222656 " fill-opacity="1" fill-rule="nonzero"></path>
  <g clip-path="url(#fef1b57f0b)">
    <path fill="#b78746" d="M 288.300781 34 C 288.1875 33.992188 288.066406 33.980469 287.949219 33.96875 C 285.851562 33.550781 262.613281 28.902344 238.574219 22.484375 C 211.15625 13.613281 187.007812 2.992188 187.007812 2.992188 C 187.007812 2.992188 163.917969 13.316406 137.273438 22.105469 C 113.007812 28.722656 89.191406 33.546875 87.082031 33.96875 C 86.964844 33.980469 86.847656 33.992188 86.734375 34 C 86.734375 34 58.871094 179.648438 187.421875 243.605469 L 187.519531 243.402344 L 187.617188 243.605469 C 316.164062 179.648438 288.300781 34 288.300781 34 " fill-opacity="1" fill-rule="nonzero"></path>
  </g>
  <path fill="#dddac4" d="M 276.984375 44.027344 C 276.882812 44.019531 276.777344 44.007812 276.671875 44 C 274.808594 43.628906 254.179688 39.5 232.84375 33.804688 C 208.503906 25.929688 187.066406 16.5 187.066406 16.5 C 187.066406 16.5 166.566406 25.664062 142.914062 33.46875 C 121.375 39.339844 100.230469 43.625 98.359375 44 C 98.257812 44.007812 98.152344 44.019531 98.050781 44.027344 C 98.050781 44.027344 73.316406 173.320312 187.433594 230.097656 L 187.519531 229.917969 L 187.605469 230.097656 C 301.722656 173.320312 276.984375 44.027344 276.984375 44.027344 " fill-opacity="1" fill-rule="nonzero"></path>
  <path fill="#b78746" d="M 271.121094 49.222656 C 271.027344 49.214844 270.929688 49.207031 270.832031 49.199219 C 269.089844 48.851562 249.8125 44.996094 229.871094 39.667969 C 207.128906 32.308594 187.09375 23.5 187.09375 23.5 C 187.09375 23.5 167.9375 32.0625 145.839844 39.355469 C 125.707031 44.84375 105.949219 48.847656 104.203125 49.199219 C 104.105469 49.207031 104.011719 49.214844 103.914062 49.222656 C 103.914062 49.222656 80.800781 170.042969 187.4375 223.097656 L 187.519531 222.929688 L 187.597656 223.097656 C 294.234375 170.042969 271.121094 49.222656 271.121094 49.222656 " fill-opacity="1" fill-rule="nonzero"></path>
  <path fill="#b78746" d="M 270.832031 49.199219 C 269.089844 48.851562 249.8125 44.996094 229.871094 39.667969 C 207.128906 32.308594 187.09375 23.5 187.09375 23.5 C 187.09375 23.5 167.9375 32.0625 145.839844 39.355469 C 125.707031 44.84375 105.949219 48.847656 104.203125 49.199219 C 104.105469 49.207031 104.007812 49.214844 103.914062 49.222656 L 187.371094 112.710938 L 270.832031 49.199219 " fill-opacity="1" fill-rule="nonzero"></path>
  <path fill="#b78746" d="M 103.914062 49.222656 C 103.914062 49.222656 80.800781 170.042969 187.4375 223.097656 L 187.371094 112.710938 L 103.914062 49.222656 " fill-opacity="1" fill-rule="nonzero"></path>
  <g clip-path="url(#e42ed407b5)">
    <path fill="#dddac4" d="M 221.292969 99.320312 L 221.292969 90.210938 C 221.292969 71.582031 206.128906 56.417969 187.5 56.417969 C 168.867188 56.417969 153.695312 71.578125 153.695312 90.210938 L 153.695312 99.320312 C 148.59375 99.457031 144.496094 103.617188 144.496094 108.75 L 144.496094 157.980469 C 144.496094 158.601562 144.554688 159.21875 144.675781 159.828125 C 144.796875 160.4375 144.976562 161.027344 145.214844 161.601562 C 145.453125 162.175781 145.742188 162.71875 146.089844 163.234375 C 146.433594 163.753906 146.824219 164.230469 147.265625 164.667969 C 147.703125 165.109375 148.179688 165.5 148.695312 165.84375 C 149.214844 166.191406 149.757812 166.480469 150.332031 166.71875 C 150.90625 166.957031 151.496094 167.136719 152.105469 167.257812 C 152.714844 167.378906 153.328125 167.441406 153.949219 167.441406 L 221.039062 167.441406 C 221.660156 167.441406 222.277344 167.378906 222.886719 167.257812 C 223.496094 167.136719 224.085938 166.957031 224.660156 166.71875 C 225.234375 166.480469 225.777344 166.191406 226.292969 165.847656 C 226.8125 165.5 227.289062 165.109375 227.726562 164.671875 C 228.167969 164.230469 228.558594 163.753906 228.902344 163.238281 C 229.25 162.71875 229.539062 162.175781 229.777344 161.601562 C 230.015625 161.027344 230.195312 160.4375 230.316406 159.828125 C 230.4375 159.21875 230.5 158.605469 230.5 157.984375 L 230.5 108.75 C 230.5 103.613281 226.394531 99.457031 221.292969 99.320312 Z M 195.230469 126.5625 C 195.191406 126.855469 195.027344 127.527344 195.011719 127.578125 C 194.433594 129.578125 193.054688 131.21875 191.261719 132.21875 L 194.296875 145.160156 C 194.339844 145.296875 194.371094 145.433594 194.382812 145.570312 C 194.394531 145.710938 194.390625 145.851562 194.367188 145.992188 C 194.347656 146.128906 194.3125 146.265625 194.257812 146.394531 C 194.207031 146.527344 194.140625 146.648438 194.058594 146.761719 C 193.976562 146.878906 193.882812 146.980469 193.777344 147.074219 C 193.671875 147.167969 193.558594 147.246094 193.433594 147.3125 C 193.308594 147.378906 193.179688 147.429688 193.042969 147.464844 C 192.90625 147.5 192.769531 147.519531 192.628906 147.523438 L 182.570312 147.523438 C 182.429688 147.519531 182.289062 147.5 182.15625 147.464844 C 182.019531 147.429688 181.890625 147.378906 181.765625 147.3125 C 181.640625 147.246094 181.527344 147.167969 181.421875 147.074219 C 181.316406 146.980469 181.222656 146.878906 181.140625 146.761719 C 181.058594 146.648438 180.992188 146.527344 180.941406 146.394531 C 180.886719 146.265625 180.851562 146.128906 180.832031 145.992188 C 180.808594 145.851562 180.804688 145.710938 180.816406 145.570312 C 180.828125 145.433594 180.859375 145.296875 180.902344 145.160156 L 183.730469 132.21875 C 181.9375 131.21875 180.558594 129.578125 179.984375 127.578125 C 179.96875 127.527344 179.800781 126.855469 179.761719 126.5625 C 179.707031 126.203125 179.679688 125.839844 179.679688 125.472656 C 179.679688 124.960938 179.730469 124.453125 179.828125 123.949219 C 179.929688 123.445312 180.078125 122.957031 180.273438 122.480469 C 180.46875 122.007812 180.710938 121.558594 180.996094 121.128906 C 181.28125 120.703125 181.605469 120.308594 181.96875 119.945312 C 182.332031 119.582031 182.726562 119.257812 183.152344 118.972656 C 183.578125 118.6875 184.03125 118.445312 184.503906 118.25 C 184.980469 118.054688 185.46875 117.90625 185.972656 117.804688 C 186.472656 117.703125 186.984375 117.65625 187.496094 117.65625 C 188.007812 117.65625 188.519531 117.703125 189.019531 117.804688 C 189.523438 117.90625 190.015625 118.054688 190.488281 118.25 C 190.960938 118.445312 191.414062 118.6875 191.839844 118.972656 C 192.265625 119.257812 192.660156 119.582031 193.023438 119.945312 C 193.386719 120.308594 193.710938 120.703125 193.996094 121.128906 C 194.28125 121.558594 194.523438 122.007812 194.71875 122.480469 C 194.914062 122.957031 195.0625 123.445312 195.164062 123.949219 C 195.261719 124.453125 195.3125 124.960938 195.3125 125.472656 C 195.3125 125.839844 195.285156 126.203125 195.230469 126.5625 Z M 209.753906 99.292969 L 165.238281 99.292969 L 165.238281 90.210938 C 165.238281 77.9375 175.21875 67.949219 187.5 67.949219 C 199.777344 67.949219 209.753906 77.9375 209.753906 90.210938 Z M 209.753906 99.292969 " fill-opacity="1" fill-rule="nonzero"></path>
  </g>
  <g fill="#dddac4" fill-opacity="1">
    <g transform="translate(60.595782, 315.754355)">
      <g>
        <path d="M 1.390625 -25.046875 C 1.390625 -32.285156 3.851562 -38.410156 8.78125 -43.421875 C 13.71875 -48.441406 19.664062 -50.953125 26.625 -50.953125 C 33.625 -50.953125 39.566406 -48.453125 44.453125 -43.453125 C 49.347656 -38.460938 51.796875 -32.328125 51.796875 -25.046875 C 51.796875 -17.734375 49.390625 -11.578125 44.578125 -6.578125 C 39.765625 -1.585938 33.78125 0.90625 26.625 0.90625 C 19.3125 0.90625 13.273438 -1.566406 8.515625 -6.515625 C 3.765625 -11.472656 1.390625 -17.648438 1.390625 -25.046875 Z M 13.703125 -25.046875 C 13.703125 -22.421875 14.109375 -20.023438 14.921875 -17.859375 C 15.734375 -15.703125 17.148438 -13.875 19.171875 -12.375 C 21.191406 -10.875 23.675781 -10.125 26.625 -10.125 C 30.875 -10.125 34.078125 -11.578125 36.234375 -14.484375 C 38.398438 -17.398438 39.484375 -20.921875 39.484375 -25.046875 C 39.484375 -29.128906 38.378906 -32.632812 36.171875 -35.5625 C 33.972656 -38.5 30.789062 -39.96875 26.625 -39.96875 C 22.5 -39.96875 19.3125 -38.5 17.0625 -35.5625 C 14.820312 -32.632812 13.703125 -29.128906 13.703125 -25.046875 Z M 13.703125 -25.046875 "></path>
      </g>
    </g>
  </g>
  <g fill="#dddac4" fill-opacity="1">
    <g transform="translate(123.132576, 315.754355)">
      <g>
        <path d="M 0.484375 -40.03125 L 0.484375 -50.046875 L 35.671875 -50.046875 L 35.671875 -40.03125 L 23.78125 -40.03125 L 23.78125 0 L 12.375 0 L 12.375 -40.03125 Z M 0.484375 -40.03125 "></path>
      </g>
    </g>
  </g>
  <g fill="#dddac4" fill-opacity="1">
    <g transform="translate(168.625533, 315.754355)">
      <g>
        <path d="M 32.265625 -50.046875 L 32.265625 -40.03125 L 15.046875 -40.03125 L 15.046875 -30.078125 L 31.546875 -30.078125 L 31.546875 -20.078125 L 15.046875 -20.078125 L 15.046875 -10.015625 L 32.265625 -10.015625 L 32.265625 0 L 3.640625 0 L 3.640625 -50.046875 Z M 32.265625 -50.046875 "></path>
      </g>
    </g>
  </g>
  <g fill="#dddac4" fill-opacity="1">
    <g transform="translate(213.148027, 315.754355)">
      <g>
        <path d="M 30.265625 -10.3125 C 32.003906 -10.3125 33.691406 -10.570312 35.328125 -11.09375 C 36.960938 -11.625 38.164062 -12.128906 38.9375 -12.609375 L 40.09375 -13.40625 L 44.953125 -3.703125 C 44.785156 -3.578125 44.5625 -3.410156 44.28125 -3.203125 C 44 -3.003906 43.34375 -2.632812 42.3125 -2.09375 C 41.28125 -1.550781 40.175781 -1.078125 39 -0.671875 C 37.832031 -0.265625 36.296875 0.0976562 34.390625 0.421875 C 32.492188 0.742188 30.535156 0.90625 28.515625 0.90625 C 23.859375 0.90625 19.445312 -0.234375 15.28125 -2.515625 C 11.113281 -4.796875 7.753906 -7.9375 5.203125 -11.9375 C 2.660156 -15.945312 1.390625 -20.28125 1.390625 -24.9375 C 1.390625 -28.445312 2.140625 -31.816406 3.640625 -35.046875 C 5.140625 -38.285156 7.128906 -41.054688 9.609375 -43.359375 C 12.097656 -45.671875 15 -47.515625 18.3125 -48.890625 C 21.632812 -50.265625 25.035156 -50.953125 28.515625 -50.953125 C 31.742188 -50.953125 34.722656 -50.566406 37.453125 -49.796875 C 40.179688 -49.023438 42.113281 -48.257812 43.25 -47.5 L 44.953125 -46.34375 L 40.09375 -36.640625 C 39.8125 -36.878906 39.382812 -37.171875 38.8125 -37.515625 C 38.25 -37.859375 37.117188 -38.3125 35.421875 -38.875 C 33.722656 -39.445312 32.003906 -39.734375 30.265625 -39.734375 C 27.515625 -39.734375 25.046875 -39.285156 22.859375 -38.390625 C 20.679688 -37.503906 18.953125 -36.332031 17.671875 -34.875 C 16.398438 -33.414062 15.429688 -31.847656 14.765625 -30.171875 C 14.097656 -28.492188 13.765625 -26.785156 13.765625 -25.046875 C 13.765625 -21.242188 15.191406 -17.835938 18.046875 -14.828125 C 20.898438 -11.816406 24.972656 -10.3125 30.265625 -10.3125 Z M 30.265625 -10.3125 "></path>
      </g>
    </g>
  </g>
  <g fill="#dddac4" fill-opacity="1">
    <g transform="translate(268.163696, 315.754355)">
      <g>
        <path d="M 15.046875 -20.078125 L 15.046875 0 L 3.640625 0 L 3.640625 -50.046875 L 15.046875 -50.046875 L 15.046875 -30.078125 L 31.171875 -30.078125 L 31.171875 -50.046875 L 42.578125 -50.046875 L 42.578125 0 L 31.171875 0 L 31.171875 -20.078125 Z M 15.046875 -20.078125 "></path>
      </g>
    </g>
  </g>
  <g fill="#dddac4" fill-opacity="1">
    <g transform="translate(79.643661, 366.814098)">
      <g>
        <path d="M 14.53125 -25.015625 L 24.625 0 L 18.5 0 L 16.65625 -5 L 7.125 -5 L 5.28125 0 L -0.84375 0 L 9.25 -25.015625 Z M 14.703125 -10.015625 L 11.921875 -17.28125 L 11.859375 -17.28125 L 9.0625 -10.015625 Z M 14.703125 -10.015625 "></path>
      </g>
    </g>
  </g>
  <g fill="#dddac4" fill-opacity="1">
    <g transform="translate(114.70468, 366.814098)">
      <g>
        <path d="M 1.8125 -25.015625 L 9.0625 -25.015625 C 12.539062 -25.015625 15.515625 -23.828125 17.984375 -21.453125 C 20.453125 -19.078125 21.6875 -16.101562 21.6875 -12.53125 C 21.6875 -8.925781 20.457031 -5.9375 18 -3.5625 C 15.539062 -1.1875 12.5625 0 9.0625 0 L 1.8125 0 Z M 7.515625 -5.09375 L 8.40625 -5.09375 C 10.488281 -5.09375 12.191406 -5.796875 13.515625 -7.203125 C 14.835938 -8.609375 15.507812 -10.375 15.53125 -12.5 C 15.53125 -14.613281 14.867188 -16.378906 13.546875 -17.796875 C 12.222656 -19.210938 10.507812 -19.921875 8.40625 -19.921875 L 7.515625 -19.921875 Z M 7.515625 -5.09375 "></path>
      </g>
    </g>
  </g>
  <g fill="#dddac4" fill-opacity="1">
    <g transform="translate(148.370649, 366.814098)">
      <g>
        <path d="M 9.640625 0 L -0.84375 -25.015625 L 5.578125 -25.015625 L 11.890625 -8.578125 L 18.203125 -25.015625 L 24.625 -25.015625 L 14.140625 0 Z M 9.640625 0 "></path>
      </g>
    </g>
  </g>
  <g fill="#dddac4" fill-opacity="1">
    <g transform="translate(183.431665, 366.814098)">
      <g>
        <path d="M 7.515625 -25.015625 L 7.515625 0 L 1.8125 0 L 1.8125 -25.015625 Z M 7.515625 -25.015625 "></path>
      </g>
    </g>
  </g>
  <g fill="#dddac4" fill-opacity="1">
    <g transform="translate(204.056911, 366.814098)">
      <g>
        <path d="M 11.046875 -25.46875 C 12.398438 -25.46875 13.722656 -25.269531 15.015625 -24.875 C 16.304688 -24.488281 17.265625 -24.101562 17.890625 -23.71875 L 18.796875 -23.109375 L 16.5 -18.5625 C 16.3125 -18.6875 16.054688 -18.84375 15.734375 -19.03125 C 15.410156 -19.21875 14.804688 -19.472656 13.921875 -19.796875 C 13.035156 -20.128906 12.207031 -20.296875 11.4375 -20.296875 C 10.488281 -20.296875 9.753906 -20.09375 9.234375 -19.6875 C 8.722656 -19.28125 8.46875 -18.734375 8.46875 -18.046875 C 8.46875 -17.703125 8.585938 -17.382812 8.828125 -17.09375 C 9.066406 -16.800781 9.476562 -16.488281 10.0625 -16.15625 C 10.65625 -15.820312 11.171875 -15.550781 11.609375 -15.34375 C 12.054688 -15.144531 12.742188 -14.84375 13.671875 -14.4375 C 15.296875 -13.75 16.675781 -12.8125 17.8125 -11.625 C 18.957031 -10.445312 19.53125 -9.109375 19.53125 -7.609375 C 19.53125 -6.171875 19.269531 -4.914062 18.75 -3.84375 C 18.238281 -2.78125 17.53125 -1.941406 16.625 -1.328125 C 15.726562 -0.722656 14.734375 -0.273438 13.640625 0.015625 C 12.554688 0.304688 11.375 0.453125 10.09375 0.453125 C 9.007812 0.453125 7.941406 0.335938 6.890625 0.109375 C 5.835938 -0.109375 4.957031 -0.382812 4.25 -0.71875 C 3.539062 -1.050781 2.898438 -1.378906 2.328125 -1.703125 C 1.765625 -2.023438 1.351562 -2.296875 1.09375 -2.515625 L 0.703125 -2.84375 L 3.546875 -7.640625 C 3.785156 -7.441406 4.117188 -7.1875 4.546875 -6.875 C 4.972656 -6.5625 5.726562 -6.140625 6.8125 -5.609375 C 7.894531 -5.085938 8.847656 -4.828125 9.671875 -4.828125 C 12.078125 -4.828125 13.28125 -5.644531 13.28125 -7.28125 C 13.28125 -7.625 13.191406 -7.941406 13.015625 -8.234375 C 12.847656 -8.523438 12.546875 -8.816406 12.109375 -9.109375 C 11.679688 -9.398438 11.300781 -9.628906 10.96875 -9.796875 C 10.632812 -9.972656 10.085938 -10.238281 9.328125 -10.59375 C 8.566406 -10.945312 8.003906 -11.21875 7.640625 -11.40625 C 6.128906 -12.15625 4.957031 -13.085938 4.125 -14.203125 C 3.289062 -15.328125 2.875 -16.535156 2.875 -17.828125 C 2.875 -20.078125 3.703125 -21.910156 5.359375 -23.328125 C 7.023438 -24.753906 8.921875 -25.46875 11.046875 -25.46875 Z M 11.046875 -25.46875 "></path>
      </g>
    </g>
  </g>
  <g fill="#dddac4" fill-opacity="1">
    <g transform="translate(235.721294, 366.814098)">
      <g>
        <path d="M 0.703125 -12.53125 C 0.703125 -16.144531 1.929688 -19.203125 4.390625 -21.703125 C 6.859375 -24.210938 9.832031 -25.46875 13.3125 -25.46875 C 16.8125 -25.46875 19.785156 -24.21875 22.234375 -21.71875 C 24.679688 -19.226562 25.90625 -16.164062 25.90625 -12.53125 C 25.90625 -8.863281 24.703125 -5.78125 22.296875 -3.28125 C 19.890625 -0.789062 16.894531 0.453125 13.3125 0.453125 C 9.65625 0.453125 6.640625 -0.78125 4.265625 -3.25 C 1.890625 -5.726562 0.703125 -8.820312 0.703125 -12.53125 Z M 6.859375 -12.53125 C 6.859375 -11.207031 7.054688 -10.003906 7.453125 -8.921875 C 7.859375 -7.847656 8.566406 -6.9375 9.578125 -6.1875 C 10.585938 -5.4375 11.832031 -5.0625 13.3125 -5.0625 C 15.4375 -5.0625 17.039062 -5.789062 18.125 -7.25 C 19.207031 -8.707031 19.75 -10.46875 19.75 -12.53125 C 19.75 -14.570312 19.195312 -16.320312 18.09375 -17.78125 C 16.988281 -19.25 15.394531 -19.984375 13.3125 -19.984375 C 11.25 -19.984375 9.65625 -19.25 8.53125 -17.78125 C 7.414062 -16.320312 6.859375 -14.570312 6.859375 -12.53125 Z M 6.859375 -12.53125 "></path>
      </g>
    </g>
  </g>
  <g fill="#dddac4" fill-opacity="1">
    <g transform="translate(273.602738, 366.814098)">
      <g>
        <path d="M 1.8125 -25.015625 L 10.765625 -25.015625 C 13.171875 -25.015625 15.128906 -24.375 16.640625 -23.09375 C 18.160156 -21.8125 18.921875 -19.976562 18.921875 -17.59375 C 18.921875 -15.75 18.460938 -14.203125 17.546875 -12.953125 C 16.628906 -11.710938 15.378906 -10.84375 13.796875 -10.34375 L 22.40625 0 L 15.15625 0 L 7.515625 -9.890625 L 7.515625 0 L 1.8125 0 Z M 7.515625 -13.921875 L 8.1875 -13.921875 C 8.71875 -13.921875 9.160156 -13.929688 9.515625 -13.953125 C 9.878906 -13.972656 10.296875 -14.039062 10.765625 -14.15625 C 11.234375 -14.28125 11.609375 -14.453125 11.890625 -14.671875 C 12.171875 -14.898438 12.410156 -15.222656 12.609375 -15.640625 C 12.816406 -16.066406 12.921875 -16.582031 12.921875 -17.1875 C 12.921875 -17.800781 12.816406 -18.316406 12.609375 -18.734375 C 12.410156 -19.160156 12.171875 -19.484375 11.890625 -19.703125 C 11.609375 -19.929688 11.234375 -20.101562 10.765625 -20.21875 C 10.296875 -20.34375 9.878906 -20.414062 9.515625 -20.4375 C 9.160156 -20.457031 8.71875 -20.46875 8.1875 -20.46875 L 7.515625 -20.46875 Z M 7.515625 -13.921875 "></path>
      </g>
    </g>
  </g>
</svg>
