<?xml version="1.0" encoding="UTF-8" standalone="no"?>
<svg xmlns="http://www.w3.org/2000/svg" xmlns:xlink="http://www.w3.org/1999/xlink" width="375" zoomAndPan="magnify" viewBox="0 0 375 374.999991" height="375" preserveAspectRatio="xMidYMid meet" version="1.0">
  <defs>
    <g></g>
    <clipPath id="ba1e31eed2">
      <path d="M 82 2.488281 L 293 2.488281 L 293 246.238281 L 82 246.238281 Z M 82 2.488281 " clip-rule="nonzero"></path>
    </clipPath>
    <clipPath id="ac9b453f0c">
      <path d="M 82 2.488281 L 293 2.488281 L 293 246.238281 L 82 246.238281 Z M 82 2.488281 " clip-rule="nonzero"></path>
    </clipPath>
    <clipPath id="942cba73f9">
      <path d="M 143.941406 56.566406 L 230.941406 56.566406 L 230.941406 169 L 143.941406 169 Z M 143.941406 56.566406 " clip-rule="nonzero"></path>
    </clipPath>
  </defs>
  <g clip-path="url(#ba1e31eed2)">
    <path fill="#b78746" d="M 289.554688 33.875 C 289.4375 33.863281 289.316406 33.851562 289.199219 33.839844 C 287.074219 33.417969 263.546875 28.710938 239.210938 22.210938 C 211.453125 13.234375 187.003906 2.480469 187.003906 2.480469 C 187.003906 2.480469 163.625 12.933594 136.652344 21.828125 C 112.085938 28.53125 87.972656 33.414062 85.835938 33.839844 C 85.71875 33.851562 85.601562 33.863281 85.484375 33.875 C 85.484375 33.875 57.277344 181.328125 187.421875 246.078125 L 187.519531 245.875 L 187.621094 246.078125 C 317.765625 181.328125 289.554688 33.875 289.554688 33.875 " fill-opacity="1" fill-rule="nonzero"></path>
  </g>
  <path fill="#b78746" d="M 278.101562 44.023438 C 277.996094 44.015625 277.886719 44.003906 277.78125 43.996094 C 275.894531 43.621094 255.011719 39.441406 233.40625 33.671875 C 208.765625 25.703125 187.0625 16.15625 187.0625 16.15625 C 187.0625 16.15625 166.308594 25.433594 142.363281 33.332031 C 120.554688 39.28125 99.148438 43.617188 97.253906 43.996094 C 97.152344 44.003906 97.046875 44.015625 96.941406 44.023438 C 96.941406 44.023438 71.898438 174.925781 187.433594 232.40625 L 187.519531 232.222656 L 187.609375 232.40625 C 303.140625 174.925781 278.101562 44.023438 278.101562 44.023438 " fill-opacity="1" fill-rule="nonzero"></path>
  <path fill="#b78746" d="M 272.164062 49.285156 C 272.066406 49.277344 271.96875 49.265625 271.867188 49.257812 C 270.105469 48.90625 250.585938 45.003906 230.402344 39.609375 C 207.375 32.160156 187.089844 23.242188 187.089844 23.242188 C 187.089844 23.242188 167.699219 31.910156 145.324219 39.292969 C 124.941406 44.851562 104.941406 48.902344 103.171875 49.257812 C 103.074219 49.265625 102.976562 49.277344 102.878906 49.285156 C 102.878906 49.285156 79.476562 171.605469 187.4375 225.320312 L 187.519531 225.148438 L 187.601562 225.320312 C 295.5625 171.605469 272.164062 49.285156 272.164062 49.285156 " fill-opacity="1" fill-rule="nonzero"></path>
  <path fill="#b78746" d="M 271.867188 49.257812 C 270.105469 48.90625 250.585938 45.003906 230.402344 39.609375 C 207.375 32.160156 187.089844 23.242188 187.089844 23.242188 C 187.089844 23.242188 167.699219 31.910156 145.324219 39.292969 C 124.941406 44.851562 104.941406 48.902344 103.171875 49.257812 C 103.074219 49.265625 102.972656 49.277344 102.878906 49.285156 L 187.371094 113.558594 L 271.867188 49.257812 " fill-opacity="1" fill-rule="nonzero"></path>
  <path fill="#b78746" d="M 102.878906 49.285156 C 102.878906 49.285156 79.476562 171.605469 187.4375 225.320312 L 187.371094 113.558594 L 102.878906 49.285156 " fill-opacity="1" fill-rule="nonzero"></path>
  <g clip-path="url(#ac9b453f0c)">
    <path fill="#b78746" d="M 289.554688 33.875 C 289.4375 33.863281 289.316406 33.851562 289.199219 33.839844 C 287.074219 33.417969 263.546875 28.710938 239.210938 22.210938 C 211.453125 13.234375 187.003906 2.480469 187.003906 2.480469 C 187.003906 2.480469 163.625 12.933594 136.652344 21.828125 C 112.085938 28.53125 87.972656 33.414062 85.835938 33.839844 C 85.71875 33.851562 85.601562 33.863281 85.484375 33.875 C 85.484375 33.875 57.277344 181.328125 187.421875 246.078125 L 187.519531 245.875 L 187.621094 246.078125 C 317.765625 181.328125 289.554688 33.875 289.554688 33.875 " fill-opacity="1" fill-rule="nonzero"></path>
  </g>
  <path fill="#f4f6fc" d="M 278.101562 44.023438 C 277.996094 44.015625 277.886719 44.003906 277.78125 43.996094 C 275.894531 43.621094 255.011719 39.441406 233.40625 33.671875 C 208.765625 25.703125 187.0625 16.15625 187.0625 16.15625 C 187.0625 16.15625 166.308594 25.433594 142.363281 33.332031 C 120.554688 39.28125 99.148438 43.617188 97.253906 43.996094 C 97.152344 44.003906 97.046875 44.015625 96.941406 44.023438 C 96.941406 44.023438 71.898438 174.925781 187.433594 232.40625 L 187.519531 232.222656 L 187.609375 232.40625 C 303.140625 174.925781 278.101562 44.023438 278.101562 44.023438 " fill-opacity="1" fill-rule="nonzero"></path>
  <path fill="#b78746" d="M 272.164062 49.285156 C 272.066406 49.277344 271.96875 49.265625 271.867188 49.257812 C 270.105469 48.90625 250.585938 45.003906 230.402344 39.609375 C 207.375 32.160156 187.089844 23.242188 187.089844 23.242188 C 187.089844 23.242188 167.699219 31.910156 145.324219 39.292969 C 124.941406 44.851562 104.941406 48.902344 103.171875 49.257812 C 103.074219 49.265625 102.976562 49.277344 102.878906 49.285156 C 102.878906 49.285156 79.476562 171.605469 187.4375 225.320312 L 187.519531 225.148438 L 187.601562 225.320312 C 295.5625 171.605469 272.164062 49.285156 272.164062 49.285156 " fill-opacity="1" fill-rule="nonzero"></path>
  <path fill="#b78746" d="M 271.867188 49.257812 C 270.105469 48.90625 250.585938 45.003906 230.402344 39.609375 C 207.375 32.160156 187.089844 23.242188 187.089844 23.242188 C 187.089844 23.242188 167.699219 31.910156 145.324219 39.292969 C 124.941406 44.851562 104.941406 48.902344 103.171875 49.257812 C 103.074219 49.265625 102.972656 49.277344 102.878906 49.285156 L 187.371094 113.558594 L 271.867188 49.257812 " fill-opacity="1" fill-rule="nonzero"></path>
  <path fill="#b78746" d="M 102.878906 49.285156 C 102.878906 49.285156 79.476562 171.605469 187.4375 225.320312 L 187.371094 113.558594 L 102.878906 49.285156 " fill-opacity="1" fill-rule="nonzero"></path>
  <g clip-path="url(#942cba73f9)">
    <path fill="#f4f6fc" d="M 221.714844 100.003906 L 221.714844 90.785156 C 221.714844 71.921875 206.359375 56.566406 187.496094 56.566406 C 168.632812 56.566406 153.273438 71.917969 153.273438 90.785156 L 153.273438 100.003906 C 148.109375 100.144531 143.957031 104.355469 143.957031 109.554688 L 143.957031 159.398438 C 143.957031 160.027344 144.019531 160.648438 144.140625 161.265625 C 144.265625 161.882812 144.445312 162.480469 144.6875 163.0625 C 144.925781 163.644531 145.222656 164.195312 145.570312 164.71875 C 145.921875 165.238281 146.316406 165.722656 146.761719 166.167969 C 147.207031 166.613281 147.691406 167.007812 148.214844 167.359375 C 148.734375 167.707031 149.289062 168.003906 149.867188 168.242188 C 150.449219 168.484375 151.046875 168.667969 151.664062 168.789062 C 152.28125 168.910156 152.902344 168.972656 153.53125 168.972656 L 221.457031 168.972656 C 222.085938 168.972656 222.707031 168.910156 223.324219 168.789062 C 223.941406 168.667969 224.539062 168.484375 225.121094 168.246094 C 225.703125 168.003906 226.253906 167.707031 226.777344 167.359375 C 227.300781 167.011719 227.785156 166.613281 228.226562 166.167969 C 228.671875 165.722656 229.070312 165.242188 229.417969 164.71875 C 229.769531 164.195312 230.0625 163.644531 230.304688 163.0625 C 230.542969 162.480469 230.726562 161.882812 230.847656 161.265625 C 230.972656 160.648438 231.03125 160.027344 231.03125 159.398438 L 231.03125 109.554688 C 231.03125 104.351562 226.878906 100.144531 221.714844 100.003906 Z M 195.328125 127.585938 C 195.285156 127.882812 195.117188 128.5625 195.101562 128.613281 C 194.519531 130.640625 193.121094 132.300781 191.308594 133.3125 L 194.382812 146.417969 C 194.425781 146.554688 194.453125 146.691406 194.464844 146.832031 C 194.476562 146.976562 194.472656 147.117188 194.453125 147.257812 C 194.429688 147.398438 194.394531 147.535156 194.339844 147.667969 C 194.289062 147.796875 194.222656 147.921875 194.140625 148.039062 C 194.058594 148.15625 193.960938 148.261719 193.855469 148.355469 C 193.75 148.449219 193.632812 148.527344 193.507812 148.597656 C 193.382812 148.664062 193.25 148.714844 193.113281 148.75 C 192.972656 148.785156 192.835938 148.804688 192.691406 148.808594 L 182.507812 148.808594 C 182.363281 148.804688 182.226562 148.785156 182.085938 148.75 C 181.949219 148.714844 181.816406 148.664062 181.691406 148.597656 C 181.566406 148.53125 181.449219 148.449219 181.34375 148.355469 C 181.238281 148.261719 181.144531 148.15625 181.058594 148.039062 C 180.976562 147.921875 180.910156 147.796875 180.859375 147.667969 C 180.804688 147.535156 180.769531 147.398438 180.746094 147.257812 C 180.726562 147.117188 180.722656 146.976562 180.734375 146.832031 C 180.746094 146.691406 180.773438 146.554688 180.820312 146.417969 L 183.683594 133.3125 C 181.867188 132.300781 180.472656 130.640625 179.886719 128.613281 C 179.871094 128.5625 179.707031 127.882812 179.664062 127.585938 C 179.609375 127.222656 179.582031 126.855469 179.582031 126.484375 C 179.582031 125.964844 179.632812 125.449219 179.734375 124.941406 C 179.835938 124.429688 179.984375 123.933594 180.183594 123.457031 C 180.382812 122.976562 180.625 122.519531 180.914062 122.085938 C 181.203125 121.65625 181.53125 121.253906 181.898438 120.886719 C 182.265625 120.519531 182.664062 120.191406 183.097656 119.902344 C 183.53125 119.613281 183.984375 119.371094 184.464844 119.171875 C 184.945312 118.972656 185.441406 118.820312 185.949219 118.71875 C 186.460938 118.617188 186.976562 118.566406 187.496094 118.566406 C 188.015625 118.566406 188.53125 118.617188 189.039062 118.71875 C 189.550781 118.820312 190.042969 118.972656 190.523438 119.171875 C 191.003906 119.371094 191.460938 119.613281 191.894531 119.902344 C 192.324219 120.191406 192.722656 120.519531 193.09375 120.886719 C 193.460938 121.253906 193.789062 121.65625 194.074219 122.085938 C 194.363281 122.519531 194.609375 122.976562 194.808594 123.457031 C 195.003906 123.933594 195.15625 124.429688 195.257812 124.941406 C 195.359375 125.449219 195.410156 125.964844 195.410156 126.484375 C 195.410156 126.855469 195.382812 127.222656 195.328125 127.585938 Z M 210.03125 99.980469 L 164.960938 99.980469 L 164.960938 90.785156 C 164.960938 78.355469 175.066406 68.246094 187.496094 68.246094 C 199.929688 68.246094 210.03125 78.355469 210.03125 90.785156 Z M 210.03125 99.980469 " fill-opacity="1" fill-rule="nonzero"></path>
  </g>
  <g fill="#f4f6fc" fill-opacity="1">
    <g transform="translate(59.02028, 319.124571)">
      <g>
        <path d="M 1.40625 -25.359375 C 1.40625 -32.691406 3.898438 -38.894531 8.890625 -43.96875 C 13.890625 -49.039062 19.910156 -51.578125 26.953125 -51.578125 C 34.035156 -51.578125 40.050781 -49.046875 45 -43.984375 C 49.957031 -38.929688 52.4375 -32.722656 52.4375 -25.359375 C 52.4375 -17.953125 50 -11.71875 45.125 -6.65625 C 40.257812 -1.601562 34.203125 0.921875 26.953125 0.921875 C 19.546875 0.921875 13.4375 -1.582031 8.625 -6.59375 C 3.8125 -11.613281 1.40625 -17.867188 1.40625 -25.359375 Z M 13.875 -25.359375 C 13.875 -22.703125 14.28125 -20.273438 15.09375 -18.078125 C 15.914062 -15.890625 17.347656 -14.035156 19.390625 -12.515625 C 21.441406 -11.003906 23.960938 -10.25 26.953125 -10.25 C 31.253906 -10.25 34.5 -11.722656 36.6875 -14.671875 C 38.875 -17.617188 39.96875 -21.179688 39.96875 -25.359375 C 39.96875 -29.492188 38.851562 -33.046875 36.625 -36.015625 C 34.394531 -38.984375 31.171875 -40.46875 26.953125 -40.46875 C 22.773438 -40.46875 19.550781 -38.984375 17.28125 -36.015625 C 15.007812 -33.046875 13.875 -29.492188 13.875 -25.359375 Z M 13.875 -25.359375 "></path>
      </g>
    </g>
  </g>
  <g fill="#f4f6fc" fill-opacity="1">
    <g transform="translate(122.333455, 319.124571)">
      <g>
        <path d="M 0.484375 -40.53125 L 0.484375 -50.65625 L 36.109375 -50.65625 L 36.109375 -40.53125 L 24.078125 -40.53125 L 24.078125 0 L 12.53125 0 L 12.53125 -40.53125 Z M 0.484375 -40.53125 "></path>
      </g>
    </g>
  </g>
  <g fill="#f4f6fc" fill-opacity="1">
    <g transform="translate(168.391197, 319.124571)">
      <g>
        <path d="M 32.671875 -50.65625 L 32.671875 -40.53125 L 15.234375 -40.53125 L 15.234375 -30.453125 L 31.9375 -30.453125 L 31.9375 -20.328125 L 15.234375 -20.328125 L 15.234375 -10.125 L 32.671875 -10.125 L 32.671875 0 L 3.6875 0 L 3.6875 -50.65625 Z M 32.671875 -50.65625 "></path>
      </g>
    </g>
  </g>
  <g fill="#f4f6fc" fill-opacity="1">
    <g transform="translate(213.466428, 319.124571)">
      <g>
        <path d="M 30.640625 -10.4375 C 32.398438 -10.4375 34.109375 -10.703125 35.765625 -11.234375 C 37.421875 -11.765625 38.640625 -12.273438 39.421875 -12.765625 L 40.59375 -13.578125 L 45.5 -3.75 C 45.332031 -3.625 45.101562 -3.457031 44.8125 -3.25 C 44.53125 -3.050781 43.867188 -2.675781 42.828125 -2.125 C 41.785156 -1.570312 40.671875 -1.085938 39.484375 -0.671875 C 38.296875 -0.265625 36.738281 0.0976562 34.8125 0.421875 C 32.894531 0.753906 30.910156 0.921875 28.859375 0.921875 C 24.148438 0.921875 19.6875 -0.234375 15.46875 -2.546875 C 11.257812 -4.859375 7.863281 -8.039062 5.28125 -12.09375 C 2.695312 -16.144531 1.40625 -20.523438 1.40625 -25.234375 C 1.40625 -28.796875 2.160156 -32.210938 3.671875 -35.484375 C 5.191406 -38.765625 7.210938 -41.570312 9.734375 -43.90625 C 12.253906 -46.238281 15.191406 -48.097656 18.546875 -49.484375 C 21.898438 -50.878906 25.335938 -51.578125 28.859375 -51.578125 C 32.128906 -51.578125 35.144531 -51.1875 37.90625 -50.40625 C 40.675781 -49.632812 42.632812 -48.859375 43.78125 -48.078125 L 45.5 -46.921875 L 40.59375 -37.09375 C 40.300781 -37.332031 39.867188 -37.625 39.296875 -37.96875 C 38.722656 -38.320312 37.578125 -38.785156 35.859375 -39.359375 C 34.140625 -39.929688 32.398438 -40.21875 30.640625 -40.21875 C 27.859375 -40.21875 25.359375 -39.765625 23.140625 -38.859375 C 20.929688 -37.960938 19.179688 -36.773438 17.890625 -35.296875 C 16.609375 -33.828125 15.628906 -32.242188 14.953125 -30.546875 C 14.273438 -28.847656 13.9375 -27.117188 13.9375 -25.359375 C 13.9375 -21.515625 15.378906 -18.066406 18.265625 -15.015625 C 21.148438 -11.960938 25.273438 -10.4375 30.640625 -10.4375 Z M 30.640625 -10.4375 "></path>
      </g>
    </g>
  </g>
  <g fill="#f4f6fc" fill-opacity="1">
    <g transform="translate(269.165104, 319.124571)">
      <g>
        <path d="M 15.234375 -20.328125 L 15.234375 0 L 3.6875 0 L 3.6875 -50.65625 L 15.234375 -50.65625 L 15.234375 -30.453125 L 31.5625 -30.453125 L 31.5625 -50.65625 L 43.109375 -50.65625 L 43.109375 0 L 31.5625 0 L 31.5625 -20.328125 Z M 15.234375 -20.328125 "></path>
      </g>
    </g>
  </g>
  <g fill="#f4f6fc" fill-opacity="1">
    <g transform="translate(78.30464, 370.818147)">
      <g>
        <path d="M 14.703125 -25.328125 L 24.9375 0 L 18.734375 0 L 16.859375 -5.0625 L 7.21875 -5.0625 L 5.34375 0 L -0.859375 0 L 9.359375 -25.328125 Z M 14.890625 -10.125 L 12.0625 -17.5 L 12 -17.5 L 9.1875 -10.125 Z M 14.890625 -10.125 "></path>
      </g>
    </g>
  </g>
  <g fill="#f4f6fc" fill-opacity="1">
    <g transform="translate(113.800933, 370.818147)">
      <g>
        <path d="M 1.84375 -25.328125 L 9.1875 -25.328125 C 12.707031 -25.328125 15.710938 -24.125 18.203125 -21.71875 C 20.703125 -19.3125 21.953125 -16.300781 21.953125 -12.6875 C 21.953125 -9.039062 20.707031 -6.015625 18.21875 -3.609375 C 15.726562 -1.203125 12.71875 0 9.1875 0 L 1.84375 0 Z M 7.609375 -5.15625 L 8.5 -5.15625 C 10.613281 -5.15625 12.335938 -5.863281 13.671875 -7.28125 C 15.015625 -8.707031 15.695312 -10.5 15.71875 -12.65625 C 15.71875 -14.800781 15.046875 -16.585938 13.703125 -18.015625 C 12.367188 -19.453125 10.632812 -20.171875 8.5 -20.171875 L 7.609375 -20.171875 Z M 7.609375 -5.15625 "></path>
      </g>
    </g>
  </g>
  <g fill="#f4f6fc" fill-opacity="1">
    <g transform="translate(147.884858, 370.818147)">
      <g>
        <path d="M 9.765625 0 L -0.859375 -25.328125 L 5.65625 -25.328125 L 12.03125 -8.6875 L 18.421875 -25.328125 L 24.9375 -25.328125 L 14.3125 0 Z M 9.765625 0 "></path>
      </g>
    </g>
  </g>
  <g fill="#f4f6fc" fill-opacity="1">
    <g transform="translate(183.381149, 370.818147)">
      <g>
        <path d="M 7.609375 -25.328125 L 7.609375 0 L 1.84375 0 L 1.84375 -25.328125 Z M 7.609375 -25.328125 "></path>
      </g>
    </g>
  </g>
  <g fill="#f4f6fc" fill-opacity="1">
    <g transform="translate(204.262454, 370.818147)">
      <g>
        <path d="M 11.171875 -25.796875 C 12.546875 -25.796875 13.882812 -25.59375 15.1875 -25.1875 C 16.5 -24.789062 17.472656 -24.398438 18.109375 -24.015625 L 19.03125 -23.390625 L 16.703125 -18.796875 C 16.515625 -18.910156 16.253906 -19.066406 15.921875 -19.265625 C 15.597656 -19.460938 14.984375 -19.722656 14.078125 -20.046875 C 13.179688 -20.378906 12.347656 -20.546875 11.578125 -20.546875 C 10.609375 -20.546875 9.863281 -20.335938 9.34375 -19.921875 C 8.820312 -19.515625 8.5625 -18.960938 8.5625 -18.265625 C 8.5625 -17.921875 8.679688 -17.597656 8.921875 -17.296875 C 9.171875 -17.003906 9.59375 -16.6875 10.1875 -16.34375 C 10.78125 -16.007812 11.300781 -15.738281 11.75 -15.53125 C 12.207031 -15.332031 12.90625 -15.023438 13.84375 -14.609375 C 15.476562 -13.921875 16.875 -12.976562 18.03125 -11.78125 C 19.1875 -10.582031 19.765625 -9.222656 19.765625 -7.703125 C 19.765625 -6.253906 19.503906 -4.984375 18.984375 -3.890625 C 18.460938 -2.804688 17.742188 -1.957031 16.828125 -1.34375 C 15.921875 -0.738281 14.914062 -0.289062 13.8125 0 C 12.707031 0.300781 11.507812 0.453125 10.21875 0.453125 C 9.113281 0.453125 8.03125 0.335938 6.96875 0.109375 C 5.90625 -0.109375 5.015625 -0.382812 4.296875 -0.71875 C 3.578125 -1.0625 2.929688 -1.394531 2.359375 -1.71875 C 1.785156 -2.039062 1.367188 -2.316406 1.109375 -2.546875 L 0.703125 -2.890625 L 3.59375 -7.734375 C 3.832031 -7.535156 4.164062 -7.273438 4.59375 -6.953125 C 5.03125 -6.640625 5.796875 -6.210938 6.890625 -5.671875 C 7.984375 -5.140625 8.953125 -4.875 9.796875 -4.875 C 12.234375 -4.875 13.453125 -5.707031 13.453125 -7.375 C 13.453125 -7.71875 13.363281 -8.035156 13.1875 -8.328125 C 13.007812 -8.628906 12.703125 -8.925781 12.265625 -9.21875 C 11.828125 -9.519531 11.4375 -9.753906 11.09375 -9.921875 C 10.757812 -10.097656 10.207031 -10.363281 9.4375 -10.71875 C 8.675781 -11.082031 8.109375 -11.359375 7.734375 -11.546875 C 6.203125 -12.304688 5.015625 -13.253906 4.171875 -14.390625 C 3.335938 -15.523438 2.921875 -16.742188 2.921875 -18.046875 C 2.921875 -20.328125 3.757812 -22.1875 5.4375 -23.625 C 7.113281 -25.070312 9.023438 -25.796875 11.171875 -25.796875 Z M 11.171875 -25.796875 "></path>
      </g>
    </g>
  </g>
  <g fill="#f4f6fc" fill-opacity="1">
    <g transform="translate(236.319943, 370.818147)">
      <g>
        <path d="M 0.703125 -12.6875 C 0.703125 -16.34375 1.953125 -19.441406 4.453125 -21.984375 C 6.953125 -24.523438 9.960938 -25.796875 13.484375 -25.796875 C 17.023438 -25.796875 20.03125 -24.53125 22.5 -22 C 24.976562 -19.46875 26.21875 -16.363281 26.21875 -12.6875 C 26.21875 -8.976562 25 -5.859375 22.5625 -3.328125 C 20.125 -0.804688 17.097656 0.453125 13.484375 0.453125 C 9.773438 0.453125 6.71875 -0.796875 4.3125 -3.296875 C 1.90625 -5.804688 0.703125 -8.9375 0.703125 -12.6875 Z M 6.9375 -12.6875 C 6.9375 -11.351562 7.140625 -10.140625 7.546875 -9.046875 C 7.960938 -7.953125 8.679688 -7.023438 9.703125 -6.265625 C 10.722656 -5.503906 11.984375 -5.125 13.484375 -5.125 C 15.628906 -5.125 17.25 -5.859375 18.34375 -7.328125 C 19.4375 -8.804688 19.984375 -10.59375 19.984375 -12.6875 C 19.984375 -14.75 19.425781 -16.519531 18.3125 -18 C 17.195312 -19.488281 15.585938 -20.234375 13.484375 -20.234375 C 11.390625 -20.234375 9.773438 -19.488281 8.640625 -18 C 7.503906 -16.519531 6.9375 -14.75 6.9375 -12.6875 Z M 6.9375 -12.6875 "></path>
      </g>
    </g>
  </g>
  <g fill="#f4f6fc" fill-opacity="1">
    <g transform="translate(274.671676, 370.818147)">
      <g>
        <path d="M 1.84375 -25.328125 L 10.90625 -25.328125 C 13.332031 -25.328125 15.3125 -24.675781 16.84375 -23.375 C 18.382812 -22.082031 19.15625 -20.226562 19.15625 -17.8125 C 19.15625 -15.945312 18.6875 -14.382812 17.75 -13.125 C 16.820312 -11.863281 15.5625 -10.976562 13.96875 -10.46875 L 22.6875 0 L 15.34375 0 L 7.609375 -10.015625 L 7.609375 0 L 1.84375 0 Z M 7.609375 -14.09375 L 8.296875 -14.09375 C 8.828125 -14.09375 9.273438 -14.101562 9.640625 -14.125 C 10.003906 -14.144531 10.421875 -14.210938 10.890625 -14.328125 C 11.367188 -14.453125 11.75 -14.628906 12.03125 -14.859375 C 12.320312 -15.085938 12.566406 -15.414062 12.765625 -15.84375 C 12.972656 -16.269531 13.078125 -16.789062 13.078125 -17.40625 C 13.078125 -18.019531 12.972656 -18.539062 12.765625 -18.96875 C 12.566406 -19.40625 12.320312 -19.734375 12.03125 -19.953125 C 11.75 -20.179688 11.367188 -20.351562 10.890625 -20.46875 C 10.421875 -20.59375 10.003906 -20.664062 9.640625 -20.6875 C 9.273438 -20.707031 8.828125 -20.71875 8.296875 -20.71875 L 7.609375 -20.71875 Z M 7.609375 -14.09375 "></path>
      </g>
    </g>
  </g>
</svg>
